<?xml version="1.0" encoding="utf-8"?>
<!-- Generator: Adobe Illustrator 27.2.0, SVG Export Plug-In . SVG Version: 6.00 Build 0)  -->
<svg version="1.2" baseProfile="tiny" xmlns="http://www.w3.org/2000/svg" xmlns:xlink="http://www.w3.org/1999/xlink" x="0px"
	 y="0px" viewBox="0 0 1024 1024" overflow="visible" xml:space="preserve">
<g id="Ebene_1">
	<g>
		<g>
			<path fill="#0275D8" d="M836.7,323.76c-33.56-57.44-79.02-102.9-136.46-136.46C642.8,153.82,580.01,137,512,137
				c-68.08,0-130.8,16.82-188.24,50.3c-57.44,33.56-102.9,79.02-136.46,136.46S137,443.99,137,512c0,68.08,16.74,130.8,50.3,188.24
				c33.56,57.44,79.02,102.98,136.46,136.46C381.2,870.26,443.92,887,512,887c68.01,0,130.8-16.74,188.24-50.3
				c57.44-33.48,102.98-79.02,136.46-136.46C870.26,642.8,887,580.08,887,512C887,443.99,870.26,381.27,836.7,323.76z M342.8,342.8
				c12.2-12.2,26.93-18.3,44.2-18.3s31.99,6.1,44.2,18.3c12.2,12.2,18.3,26.93,18.3,44.2s-6.1,31.99-18.3,44.2
				c-12.2,12.2-26.93,18.3-44.2,18.3s-31.99-6.1-44.2-18.3c-12.2-12.2-18.3-26.93-18.3-44.2S330.6,355.01,342.8,342.8z
				 M690.72,599.43c-12.05,39.43-34.52,71.13-67.41,95.24c-32.89,24.03-70.01,36.09-111.31,36.09c-41.37,0-78.42-12.05-111.31-36.16
				c-32.89-24.11-55.36-55.8-67.41-95.24c-2.6-8.11-1.93-16,1.93-23.66c3.87-7.66,10.12-12.8,18.53-15.4
				c8.11-2.6,16-1.93,23.66,1.93c7.66,3.87,12.8,10.12,15.4,18.53c8.11,26.04,23.21,47.1,45.16,63.24
				c21.95,16.15,46.65,24.18,73.96,24.18c27.31,0,52.01-8.04,73.96-24.18c21.95-16.07,37.05-37.2,45.16-63.24
				c2.6-8.48,7.81-14.66,15.62-18.53c7.81-3.94,15.77-4.54,23.96-1.93c8.11,2.6,14.14,7.74,18.08,15.4S693.32,591.32,690.72,599.43z
				 M681.2,431.2c-12.2,12.2-26.93,18.3-44.2,18.3s-31.99-6.1-44.2-18.3c-12.2-12.2-18.3-26.93-18.3-44.2s6.1-31.99,18.3-44.2
				c12.2-12.2,26.93-18.3,44.2-18.3s31.99,6.1,44.2,18.3c12.2,12.2,18.3,26.93,18.3,44.2S693.4,418.99,681.2,431.2z"/>
		</g>
	</g>
</g>
<g id="HELPER" display="none">
	<g id="VISIBLE_AREA__x28_HIDE_BEFORE_EXPORT_x29_" display="inline">
		<g>
			<path fill="#888888" d="M0,800v224h224C100.8,1024,0,923.2,0,800z"/>
			<path fill="#888888" d="M224,0H0v224C0,100.8,100.8,0,224,0z"/>
			<path fill="#888888" d="M800,1024h224V800C1024,923.2,923.2,1024,800,1024z"/>
			<path fill="#888888" d="M800,0c123.2,0,224,100.8,224,224V0H800z"/>
		</g>
	</g>
</g>
</svg>
