<svg xmlns="http://www.w3.org/2000/svg" width="20" height="20" viewBox="0 0 20 20" aria-hidden="true" role="img" focusable="false"><path fill="currentColor" fill-rule="evenodd" d="M7,7h6c0.55,0,1-0.45,1-1V4c0-0.55-0.45-1-1-1H7C6.45,3,6,3.45,6,4v2C6,6.55,6.45,7,7,7z M13,13H7c-0.55,0-1,0.45-1,1v2 c0,0.55,0.45,1,1,1h6c0.55,0,1-0.45,1-1v-2C14,13.45,13.55,13,13,13z M9.5,11V9c0-0.55-0.45-1-1-1H3C2.45,8,2,8.45,2,9v2 c0,0.55,0.45,1,1,1h5.5C9.05,12,9.5,11.55,9.5,11z M17,8h-5.5c-0.55,0-1,0.45-1,1v2c0,0.55,0.45,1,1,1H17c0.55,0,1-0.45,1-1V9 C18,8.45,17.55,8,17,8z"/></svg>
